HIERARCHY
ROOT SpineBase
{
  OFFSET 0.000000 0.000000 0.000000
  CHANNELS 6 Xposition Yposition Zposition Zrotation Xrotation Yrotation
  JOINT SpineMid
  {
    OFFSET 0.000000 24.664416 0.000000
    CHANNELS 3 Zrotation Xrotation Yrotation
    JOINT SpineShoulder
    {
      OFFSET 0.167528 18.209719 -0.468995
      CHANNELS 3 Zrotation Xrotation Yrotation
      JOINT Neck
      {
        OFFSET 0.072180 6.019363 -0.387326
        CHANNELS 3 Zrotation Xrotation Yrotation
        JOINT Head
        {
          OFFSET 3.818108 10.503067 -0.507389
          CHANNELS 3 Zrotation Xrotation Yrotation
          End Site
          {
            OFFSET 0 0 0
          }
        }
      }
      JOINT ShoulderLeft
      {
        OFFSET -10.324509 -0.945912 -7.618048
        CHANNELS 3 Zrotation Xrotation Yrotation
        JOINT ElbowLeft
        {
          OFFSET 3.693379 -19.642270 -5.149178
          CHANNELS 3 Zrotation Xrotation Yrotation
          JOINT WristLeft
          {
            OFFSET 19.356707 0.401463 -8.371751
            CHANNELS 3 Zrotation Xrotation Yrotation
            JOINT HandLeft
            {
              OFFSET 9.688277 0.397794 -4.857815
              CHANNELS 3 Zrotation Xrotation Yrotation
              JOINT HandTipLeft
              {
                OFFSET 3.457285 0.697680 1.288274
                CHANNELS 3 Zrotation Xrotation Yrotation
                End Site
                {
                  OFFSET 0 0 0
                }
              }
              JOINT ThumbLeft
              {
                OFFSET -1.947423 0.293197 -3.818240
                CHANNELS 3 Zrotation Xrotation Yrotation
                End Site
                {
                  OFFSET 0 0 0
                }
              }
            }
          }
        }
      }
      JOINT ShoulderRight
      {
        OFFSET 7.639475 2.159793 3.922777
        CHANNELS 3 Zrotation Xrotation Yrotation
        JOINT ElbowRight
        {
          OFFSET 5.069504 -13.874837 5.758091
          CHANNELS 3 Zrotation Xrotation Yrotation
          JOINT WristRight
          {
            OFFSET 4.225975 -4.894850 -22.331719
            CHANNELS 3 Zrotation Xrotation Yrotation
            JOINT HandRight
            {
              OFFSET 2.949913 -3.525281 -10.911394
              CHANNELS 3 Zrotation Xrotation Yrotation
              JOINT HandTipRight
              {
                OFFSET -0.822172 0.407064 -1.980798
                CHANNELS 3 Zrotation Xrotation Yrotation
                End Site
                {
                  OFFSET 0 0 0
                }
              }
              JOINT ThumbRight
              {
                OFFSET 3.678071 0.327748 1.110256
                CHANNELS 3 Zrotation Xrotation Yrotation
                End Site
                {
                  OFFSET 0 0 0
                }
              }
            }
          }
        }
      }
    }
  }
  JOINT HipLeft
  {
    OFFSET -4.305242 1.217645 -6.402688
    CHANNELS 3 Zrotation Xrotation Yrotation
    JOINT KneeLeft
    {
      OFFSET -5.425155 -33.998500 0.113696
      CHANNELS 3 Zrotation Xrotation Yrotation
      JOINT AnkleLeft
      {
        OFFSET -2.582464 -33.013717 8.033587
        CHANNELS 3 Zrotation Xrotation Yrotation
        JOINT FootLeft
        {
          OFFSET 6.092160 -2.172714 -10.883628
          CHANNELS 3 Zrotation Xrotation Yrotation
          End Site
          {
            OFFSET 0 0 0
          }
        }
      }
    }
  }
  JOINT HipRight
  {
    OFFSET 4.085224 0.287427 0.545564
    CHANNELS 3 Zrotation Xrotation Yrotation
    JOINT KneeRight
    {
      OFFSET 0.314078 -28.754337 1.590695
      CHANNELS 3 Zrotation Xrotation Yrotation
      JOINT AnkleRight
      {
        OFFSET -10.445969 -38.826683 5.743660
        CHANNELS 3 Zrotation Xrotation Yrotation
        JOINT FootRight
        {
          OFFSET -0.252308 -5.616899 -2.004378
          CHANNELS 3 Zrotation Xrotation Yrotation
          End Site
          {
            OFFSET 0 0 0
          }
        }
      }
    }
  }
}
MOTION
Frames: 14
Frame Time: 0.033333
12.532129 73.568214 362.248191 -0.000000 0.000000 -39.628592 0.000000 0.000000 39.628592 -0.000000 0.000000 0.000000 -0.000000 0.000000 0.000000 0.000000 0.000000 0.000000 -0.000000 0.000000 0.000000 -0.000000 0.000000 0.000000 -0.000000 0.000000 0.000000 -0.000000 0.000000 0.000000 0.000000 0.000000 0.000000 0.000000 0.000000 0.000000 -0.000000 0.000000 0.000000 -0.000000 0.000000 0.000000 -0.000000 0.000000 0.000000 -0.000000 0.000000 0.000000 0.000000 0.000000 0.000000 0.000000 0.000000 0.000000 0.000000 0.000000 39.628592 -0.000000 0.000000 0.000000 -0.000000 0.000000 0.000000 0.000000 0.000000 0.000000 0.000000 0.000000 39.628592 -0.000000 0.000000 0.000000 -0.000000 0.000000 0.000000 0.000000 0.000000 0.000000
12.566096 73.680999 362.294300 -0.023722 0.089234 -39.906447 0.075444 -0.053232 39.906501 -0.000000 0.000000 0.000000 -0.000000 0.000000 0.000000 0.000000 0.000000 0.000000 -2.263265 -0.635524 0.463727 -3.211239 -1.607616 -1.703337 8.388554 3.927450 1.342808 -0.550314 -4.671112 12.871307 0.000000 0.000000 0.000000 0.000000 0.000000 0.000000 -0.000000 0.000000 0.000000 -0.187826 -1.094356 -0.093945 0.186065 1.094656 0.090374 5.392500 -12.933575 0.386889 0.000000 0.000000 0.000000 0.000000 0.000000 0.000000 0.075444 -0.053232 39.906501 -0.000000 0.000000 0.000000 -2.362726 -2.785056 4.834968 0.000000 0.000000 0.000000 0.075444 -0.053232 39.906501 -0.000000 0.000000 0.000000 -4.589411 15.174428 1.490960 0.000000 0.000000 0.000000
12.590623 73.766576 362.333203 -0.050553 0.171654 -40.087606 0.149215 -0.098772 40.087811 -0.000000 0.000000 0.000000 0.653714 -0.537284 0.230387 0.000000 0.000000 0.000000 -4.223951 -1.215852 0.842504 -6.631000 -3.019549 -3.546252 18.221806 8.893772 2.726143 -3.354124 -9.064750 22.871988 0.000000 0.000000 0.000000 0.000000 0.000000 0.000000 -0.000000 0.000000 0.000000 -0.317795 -1.842522 -0.158090 0.630401 3.252070 0.312189 8.118486 -21.101305 1.241158 0.000000 0.000000 0.000000 0.000000 0.000000 0.000000 0.149215 -0.098772 40.087811 -0.000000 0.000000 0.000000 -4.474439 -5.752988 9.458289 0.000000 0.000000 0.000000 0.149215 -0.098772 40.087811 -0.000000 0.000000 0.000000 -7.556431 24.320378 2.982931 0.000000 0.000000 0.000000
12.605708 73.824946 362.364903 -0.080444 0.246954 -40.174524 0.220781 -0.136796 40.174961 -0.000000 0.000000 0.000000 0.879310 -0.771420 0.329644 0.000000 0.000000 0.000000 -5.791616 -1.707880 1.127083 -10.105687 -4.181675 -5.444952 30.292089 15.405954 4.058201 -10.175830 -13.679848 28.381369 0.000000 0.000000 0.000000 0.000000 0.000000 0.000000 -0.000000 0.000000 0.000000 -0.388840 -2.245612 -0.190174 0.916329 4.758638 0.541032 9.534691 -25.521588 1.939932 0.000000 0.000000 0.000000 0.000000 0.000000 0.000000 0.220781 -0.136796 40.174961 -0.000000 0.000000 0.000000 -6.206444 -8.638016 13.529967 0.000000 0.000000 0.000000 0.220781 -0.136796 40.174961 -0.000000 0.000000 0.000000 -9.069531 29.292809 3.894490 0.000000 0.000000 0.000000
12.611353 73.856107 362.389398 -0.113328 0.314865 -40.168744 0.289701 -0.167501 40.169478 -0.000000 0.000000 0.000000 1.036477 -0.982498 0.417327 0.000000 0.000000 0.000000 -6.890434 -2.082279 1.312596 -13.488591 -5.079993 -7.312415 45.655949 24.029082 4.877205 -22.831383 -18.396715 27.846510 0.000000 0.000000 0.000000 0.000000 0.000000 0.000000 -0.000000 0.000000 0.000000 -0.400385 -2.304287 -0.188957 1.180140 6.183601 0.820468 9.912678 -28.040636 2.356600 0.000000 0.000000 0.000000 0.000000 0.000000 0.000000 0.289701 -0.167501 40.169478 -0.000000 0.000000 0.000000 -7.498065 -11.149023 16.742596 0.000000 0.000000 0.000000 -0.679001 0.031455 40.142952 0.612280 -0.776597 0.029526 -9.254417 31.374071 4.046600 0.000000 0.000000 0.000000
12.607557 73.860061 362.406688 -0.149120 0.375161 -40.070933 0.355620 -0.191095 40.072014 -0.000000 0.000000 0.000000 1.124657 -1.170480 0.492844 0.000000 0.000000 0.000000 -7.465541 -2.316742 1.397482 -16.659215 -5.735204 -9.076333 64.399898 34.317484 4.107331 -41.288782 -20.953202 20.534141 0.000000 0.000000 0.000000 0.000000 0.000000 0.000000 -0.000000 0.000000 0.000000 -0.352339 -2.018295 -0.154208 1.418018 7.522162 1.151484 9.404815 -29.139589 2.449418 0.000000 0.000000 0.000000 0.000000 0.000000 0.000000 0.355620 -0.191095 40.072014 -0.000000 0.000000 0.000000 -8.351986 -13.036259 18.864081 0.000000 0.000000 0.000000 -0.756943 0.005255 40.039551 0.725509 -0.866039 0.036142 -8.152629 31.070087 3.403759 0.000000 0.000000 0.000000
12.618564 73.847091 362.438751 -0.159375 0.406966 -39.788904 0.382909 -0.210719 39.790174 -0.000000 0.000000 0.000000 1.108057 -1.375638 0.568598 0.000000 0.000000 0.000000 -6.968762 -2.176798 1.308629 -21.778328 -6.750791 -11.468538 95.948348 46.665104 -5.463051 -67.511102 -18.931267 7.997186 0.000000 0.000000 0.000000 0.000000 0.000000 0.000000 -0.000000 0.000000 0.000000 -0.283841 -1.632691 -0.127309 1.686220 9.747735 1.961405 8.634970 -30.798130 2.689965 0.000000 0.000000 0.000000 0.000000 0.000000 0.000000 0.382909 -0.210719 39.790174 0.972468 0.193372 0.220116 -10.633881 -16.297415 21.527979 0.000000 0.000000 0.000000 -0.789287 -0.056331 39.752551 0.802515 -0.868269 0.040973 -12.804586 30.319173 6.055341 0.000000 0.000000 0.000000
12.587274 73.772072 362.440346 -0.217855 0.447668 -39.441253 0.452644 -0.207317 39.442923 -0.000000 0.000000 0.000000 1.111794 -1.429470 0.588971 0.000000 0.000000 0.000000 -5.454798 -1.836340 1.011521 -26.094263 -7.311120 -13.702655 116.721154 54.026104 -12.259915 -82.392259 -9.963020 -4.553309 0.000000 0.000000 0.000000 0.000000 0.000000 0.000000 -0.000000 0.000000 0.000000 -0.000000 0.000000 0.000000 2.004571 11.137820 2.239739 3.426858 -24.851015 0.328070 0.000000 0.000000 0.000000 0.000000 0.000000 0.000000 0.452644 -0.207317 39.442923 1.134357 0.195460 0.259128 -11.284822 -17.593992 22.126616 0.000000 0.000000 0.000000 -0.724668 -0.125020 39.400947 0.857529 -0.810874 0.044630 -5.551399 18.781081 1.931689 0.000000 0.000000 0.000000
12.541782 73.679439 362.419836 -0.267712 0.464913 -39.123622 0.501048 -0.191741 39.125547 -0.000000 0.000000 0.000000 0.989581 -1.388658 0.566075 0.000000 0.000000 0.000000 -4.729263 -1.811973 0.834831 -27.109695 -7.117659 -14.720584 116.246450 57.951838 -7.970372 -83.482438 -4.285708 -8.349838 0.000000 0.000000 0.000000 0.000000 0.000000 0.000000 -0.000000 0.000000 0.000000 0.196914 1.148288 0.086950 1.873604 12.067616 3.219717 0.782244 -19.771961 1.557107 0.000000 0.000000 0.000000 0.000000 0.000000 0.000000 -0.223918 0.159125 39.007820 1.519281 -0.607292 0.410811 -11.065246 -16.810151 20.478213 0.000000 0.000000 0.000000 -0.697785 -0.165752 39.079726 1.289018 -1.502862 0.306712 0.646742 9.809533 -1.076794 0.000000 0.000000 0.000000
12.468318 73.554061 362.388583 -0.348440 0.535246 -38.773433 0.606849 -0.199073 38.776115 -0.000000 0.000000 0.000000 0.888021 -1.532466 0.613222 0.000000 0.000000 0.000000 -4.546830 -1.835905 0.783566 -24.298135 -6.305981 -14.365200 84.559802 58.155614 20.994280 -71.701917 1.802625 -11.994082 0.000000 0.000000 0.000000 0.000000 0.000000 0.000000 -0.000000 0.000000 0.000000 0.545606 3.186407 0.218647 1.643348 11.626407 3.734919 -7.628013 -2.122376 -9.858667 0.000000 0.000000 0.000000 0.000000 0.000000 0.000000 -0.181359 0.255813 38.640101 1.496950 -0.859452 0.441139 -8.656276 -11.137119 15.167176 0.000000 0.000000 0.000000 -0.604565 -0.211556 38.727253 1.397566 -1.645290 0.367125 6.966152 -10.947130 -1.852760 0.000000 0.000000 0.000000
12.390805 73.423549 362.353398 -0.427605 0.626114 -38.486106 0.724361 -0.223966 38.489858 -0.000000 0.000000 0.000000 0.763607 -1.709535 0.670918 0.000000 0.000000 0.000000 -5.275904 -1.898495 0.951915 -23.663775 -6.222617 -14.459569 99.208771 59.686777 7.498464 -81.636306 3.991784 -11.608029 0.000000 0.000000 0.000000 0.000000 0.000000 0.000000 -0.000000 0.000000 0.000000 0.835990 5.026176 0.407241 1.685893 10.523797 3.261387 -10.358388 5.787043 -4.645004 0.000000 0.000000 0.000000 0.000000 0.000000 0.000000 -0.047861 0.323450 38.344630 1.385484 -1.175847 0.461767 -8.143940 -10.355647 11.754566 0.000000 0.000000 0.000000 -0.243489 -0.199363 38.451997 1.171561 -1.556331 0.361430 21.134585 -27.188301 -1.951919 0.000000 0.000000 0.000000
12.339764 73.327925 362.323721 -0.484384 0.718035 -38.274959 0.825046 -0.263616 38.279892 -0.000000 0.000000 0.000000 0.871199 -1.888760 0.744573 0.000000 0.000000 0.000000 -6.206876 -1.889523 1.188140 -22.585499 -6.393033 -13.697101 112.175196 55.536918 -8.822265 -94.061841 4.913135 -7.993417 0.000000 0.000000 0.000000 0.000000 0.000000 0.000000 -0.000000 0.000000 0.000000 1.049337 6.540832 0.635105 1.719693 8.870767 2.488209 -10.047225 3.899209 -9.052990 0.000000 0.000000 0.000000 0.000000 0.000000 0.000000 0.072896 0.357982 38.127645 1.107121 -1.375186 0.424472 -5.570881 -5.649645 9.382885 0.000000 0.000000 0.000000 -0.452569 -0.280503 38.226239 1.623931 -1.888224 0.457733 27.877892 -27.182145 -3.099635 0.000000 0.000000 0.000000
12.328032 73.265855 362.319221 -0.478783 0.777081 -38.172676 0.856667 -0.314965 38.178278 -0.000000 0.000000 0.000000 0.888192 -2.039619 0.801803 0.000000 0.000000 0.000000 -5.577783 -1.564639 1.106983 -24.394251 -6.734484 -14.838807 130.835797 51.536306 -26.950607 -103.900046 -4.364344 2.565581 0.000000 0.000000 0.000000 0.000000 0.000000 0.000000 -0.000000 0.000000 0.000000 1.145398 7.491118 0.899467 1.616426 6.620914 1.587528 -9.249092 2.169109 -10.103462 0.000000 0.000000 0.000000 0.000000 0.000000 0.000000 0.099278 0.342890 38.020643 0.191490 -0.984754 0.159465 -4.024153 -5.217283 7.924337 0.000000 0.000000 0.000000 -0.808247 -0.397277 38.103199 2.077611 -2.135918 0.517297 25.220066 -13.726307 -6.664706 0.000000 0.000000 0.000000
12.349842 73.284467 362.332836 -0.411224 0.796082 -38.254136 0.815831 -0.370500 38.259631 0.746085 0.404874 0.040530 0.050971 -2.421873 0.747056 0.000000 0.000000 0.000000 -5.835990 -1.813902 0.935797 -23.561909 -6.676376 -14.250407 111.343334 49.068615 -18.001830 -90.520445 -16.488619 18.685447 0.000000 0.000000 0.000000 0.000000 0.000000 0.000000 -0.746390 -0.404312 -0.045800 1.105760 7.580664 1.095758 1.380484 3.924135 0.503818 1.458938 -20.928595 0.566963 0.000000 0.000000 0.000000 0.000000 0.000000 0.000000 0.042366 0.287973 38.099512 0.202398 -0.995423 0.161320 -4.904039 -7.716387 4.757387 0.000000 0.000000 0.000000 -1.382759 -0.515124 38.155722 2.564718 -2.353862 0.539134 33.475715 -14.295099 -8.787394 0.000000 0.000000 0.000000
